<?xml version="1.0" encoding="UTF-8"?>
<!DOCTYPE svg PUBLIC "-//W3C//DTD SVG 1.1//EN" "http://www.w3.org/Graphics/SVG/1.1/DTD/svg11.dtd">
<svg xmlns="http://www.w3.org/2000/svg" version="1.1" width="142px" height="141px" style="shape-rendering:geometricPrecision; text-rendering:geometricPrecision; image-rendering:optimizeQuality; fill-rule:evenodd; clip-rule:evenodd" xmlns:xlink="http://www.w3.org/1999/xlink">
<g><path style="opacity:0.976" fill="#fcaf16" d="M 75.5,3.5 C 111.893,5.55881 133.227,24.5588 139.5,60.5C 128.833,60.5 118.167,60.5 107.5,60.5C 103.255,43.9189 92.5879,35.5855 75.5,35.5C 75.5,24.8333 75.5,14.1667 75.5,3.5 Z"/></g>
<g><path style="opacity:0.984" fill="#f4811f" d="M 61.5,12.5 C 63.1667,12.5 64.8333,12.5 66.5,12.5C 66.6665,22.8387 66.4998,33.172 66,43.5C 45.5564,47.3874 35.8897,59.7208 37,80.5C 44.1116,101.306 58.2783,108.806 79.5,103C 93.6011,95.731 99.6011,84.231 97.5,68.5C 108.167,68.5 118.833,68.5 129.5,68.5C 129.986,104.41 112.986,126.91 78.5,136C 40.5805,139.468 16.4139,122.968 6,86.5C 1.90124,55.1921 13.7346,32.3588 41.5,18C 48.04,15.2014 54.7066,13.3681 61.5,12.5 Z"/></g>
</svg>
